<svg xmlns="http://www.w3.org/2000/svg" xmlns:xlink="http://www.w3.org/1999/xlink" viewBox="0 0 591.52 919.41"><defs><style>.cls-1,.cls-5{fill:#231f20;}.cls-1,.cls-2{fill-rule:evenodd;}.cls-2{fill:url(#New_Gradient);}.cls-3{font-size:245.5px;font-family:Impact, Impact;}.cls-3,.cls-4{fill:#fff;}.cls-5{font-size:54.89px;font-family:AvenirNext-Regular, Avenir Next;letter-spacing:0.4em;}.cls-6{letter-spacing:0.38em;}.cls-7{letter-spacing:0.4em;}</style><linearGradient id="New_Gradient" x1="-194.65" y1="994.88" x2="-194.65" y2="1060.92" gradientTransform="translate(1942.27 -8210.14) scale(8.5)" gradientUnits="userSpaceOnUse"><stop offset="0.31" stop-color="#2986a5"/><stop offset="0.69" stop-color="#1c708c"/></linearGradient></defs><title>Asset 2</title><g id="Layer_2" data-name="Layer 2"><g id="Layer_1-2" data-name="Layer 1"><path class="cls-1" d="M478.78,245.55C358.16,205.83,363,50.13,152.42,0c13.8,49.36,22.49,77.15,28.82,128.78l51.52,5.68c-26,6.76-51.41,8.49-55.68,32.54-12.36,70.38-58.17,59.31-81.94,81.52a125.9,125.9,0,0,0,20.28,1.62,121.52,121.52,0,0,0,36.83-5.66l0,.1A121.56,121.56,0,0,0,185.56,228l15.84-11.21L217.25,228a121.48,121.48,0,0,0,33.27,16.57l0-.1a123.6,123.6,0,0,0,73.64.1v-.1A120.83,120.83,0,0,0,357.49,228l15.84-11.21L389.18,228a121.18,121.18,0,0,0,33.27,16.57l0-.1a121.46,121.46,0,0,0,36.82,5.66,124.45,124.45,0,0,0,17.48-1.24,5.12,5.12,0,0,0,2-3.36Z"/><path class="cls-2" d="M573.93,264.58V812H0V268.2a147.8,147.8,0,0,0,33.44-17.77,149,149,0,0,0,171.94,0,149,149,0,0,0,171.93,0,149,149,0,0,0,171.95,0,149.11,149.11,0,0,0,24.67,14.14Z"/><text class="cls-3" transform="translate(47.25 722.62) scale(0.83 1)">shark</text><path class="cls-4" d="M190.92,369.82l-.69,14.06q5.36-8.52,11.81-12.73a25.32,25.32,0,0,1,14.1-4.2A23.47,23.47,0,0,1,232.27,373a25.69,25.69,0,0,1,8.49,14q1.69,7.91,1.69,26.85v67q0,21.7-2.13,30.87a26,26,0,0,1-8.74,14.63,24.22,24.22,0,0,1-15.94,5.45,24.52,24.52,0,0,1-13.8-4.2,40.87,40.87,0,0,1-11.62-12.49v36.47H150.11V369.82Zm11.42,46.27q0-14.74-.89-17.86t-5-3.12a4.85,4.85,0,0,0-5.11,3.6q-1.14,3.6-1.14,17.38V482q0,14.38,1.19,18a4.93,4.93,0,0,0,5.16,3.6q3.87,0,4.82-3.3t.94-16Z"/><path class="cls-4" d="M292.49,431.43H254.86V420.76q0-18.46,3.52-28.47t14.15-17.68q10.62-7.67,27.6-7.67,20.35,0,30.68,8.69A34.58,34.58,0,0,1,343.23,397q2.09,12.65,2.08,52.08v79.84h-39V514.72q-3.67,8.53-9.48,12.79A22.78,22.78,0,0,1,283,531.77a30,30,0,0,1-19.31-7.13q-8.79-7.13-8.79-31.23V480.34q0-17.86,4.67-24.33t23.13-15.1q19.76-9.35,21.15-12.59t1.39-13.19q0-12.47-1.54-16.24t-5.11-3.78q-4.07,0-5.06,3.18t-1,16.48Zm12.71,21.82q-9.63,8.51-11.17,14.26t-1.54,16.54q0,12.35,1.34,15.94a5.17,5.17,0,0,0,5.31,3.6q3.77,0,4.92-2.82T305.2,486Z"/><path class="cls-4" d="M399.23,369.82l-1.59,20.92q8.74-22.47,25.32-23.79v56q-11,0-16.18,3.6a15.06,15.06,0,0,0-6.35,10q-1.19,6.41-1.19,29.55v62.81H359.12V369.82Z"/><path class="cls-4" d="M518.27,369.82,502,433.17l21.15,95.72H484.56l-12.51-69.33,0,69.33H431.89V334.82H472l0,81.47,12.51-46.47Z"/><text class="cls-5" transform="translate(0.71 896.85)">stop ci<tspan class="cls-6" x="318.73" y="0">r</tspan><tspan class="cls-7" x="359.46" y="0">cling</tspan></text></g></g></svg>
